<?xml version="1.0" encoding="UTF-8" standalone="no"?>
<!DOCTYPE svg PUBLIC "-//W3C//DTD SVG 20010904//EN"
              "http://www.w3.org/TR/2001/REC-SVG-20010904/DTD/svg10.dtd">

<svg xmlns="http://www.w3.org/2000/svg"
     width="128.395mm" height="93.1217mm"
     viewBox="0 0 364 264">
  <path id="Selection"
        fill="none" stroke="black" stroke-width="1"
        d="M 70.00,0.00
           C 70.00,0.00 278.00,0.00 278.00,0.00
             278.00,0.00 293.00,1.00 293.00,1.00
             293.00,1.00 309.00,1.00 309.00,1.00
             311.01,1.00 314.79,0.76 316.41,2.02
             318.93,3.98 320.14,18.27 320.75,22.00
             320.75,22.00 324.27,44.00 324.27,44.00
             324.79,47.53 326.06,52.61 325.43,56.00
             325.43,56.00 314.11,85.00 314.11,85.00
             313.24,90.69 319.33,96.78 321.19,102.00
             322.49,105.65 322.01,116.57 322.00,121.00
             321.98,131.29 319.93,132.88 316.00,142.00
             316.00,142.00 298.82,180.00 298.82,180.00
             296.58,186.86 299.09,194.52 298.82,200.00
             298.82,200.00 296.37,222.00 296.37,222.00
             294.96,227.08 287.93,240.63 285.25,246.00
             283.91,248.67 279.07,259.78 277.35,261.01
             275.61,262.25 272.10,262.00 270.00,262.00
             270.00,262.00 235.00,262.00 235.00,262.00
             235.00,262.00 218.00,263.00 218.00,263.00
             218.00,263.00 149.00,263.00 149.00,263.00
             146.35,262.99 143.43,263.19 141.00,261.98
             134.23,258.59 124.57,241.72 113.00,235.06
             105.48,230.74 93.00,240.51 86.00,237.32
             84.26,236.52 81.53,234.19 80.00,232.92
             69.84,224.51 70.84,224.86 64.40,214.00
             57.59,202.51 40.44,170.68 36.34,159.00
             36.34,159.00 29.53,135.00 29.53,135.00
             29.53,135.00 26.27,122.00 26.27,122.00
             26.15,119.61 26.80,117.33 27.18,115.00
             27.81,111.13 26.80,106.77 28.75,104.74
             32.60,100.72 51.35,103.95 53.89,96.66
             55.33,92.52 56.58,83.26 55.37,79.00
             53.36,71.94 45.10,61.84 43.00,53.00
             43.00,53.00 54.00,46.49 54.00,46.49
             54.00,46.49 62.02,41.61 62.02,41.61
             62.02,41.61 65.25,28.00 65.25,28.00
             65.25,28.00 70.00,0.00 70.00,0.00 Z" />
</svg>
